<?xml version="1.0" encoding="UTF-8"?>
<svg id="Capa_2" data-name="Capa 2" xmlns="http://www.w3.org/2000/svg" viewBox="0 0 150.73 101.68">
  <defs>
    <style>
      .cls-1 {
        fill: #020202;
      }
    </style>
  </defs>
  <g id="Capa_1-2" data-name="Capa 1">
    <path class="cls-1" d="M150.71,50.51s.02-.08.02-.12,0-.08-.02-.12c0-.03,0-.06-.01-.09,0-.02-.02-.03-.03-.04,0,0,0-.02,0-.03,0-.02-.03-.03-.04-.05-.03-.05-.06-.09-.1-.13-.02-.02-.05-.04-.08-.06-.03-.02-.05-.04-.08-.06l-5.22-2.59s-.03,0-.04,0c-.04-.02-.08-.02-.12-.03-.04,0-.08-.02-.12-.02-.04,0-.08.01-.12.02-.03,0-.05,0-.08.01-.01,0-.02.01-.03.02-.02,0-.04,0-.05.01l-9.1,4.53-8.41-13.64s-.03-.02-.04-.04c-.05-.06-.1-.11-.17-.15-.01,0-.02-.03-.04-.04l-4.67-2.32s-.03,0-.04,0c-.02,0-.03-.02-.05-.03-.04-.01-.09-.01-.13-.02-.03,0-.06-.01-.1-.01-.08,0-.16.02-.23.05-.01,0-.02,0-.03,0,0,0,0,0,0,0l-8.56,4.26L85.96,3.97l-.05-.04s-.04-.04-.07-.05l-.07-.05L78.19.06s-.03,0-.04,0c-.06-.02-.12-.04-.19-.04-.03,0-.06-.01-.09-.01-.09,0-.17.02-.25.06L27.99,24.74s0,0-.01.01c0,0-.01,0-.02,0-.03.02-.05.05-.08.07-.04.04-.09.07-.12.12-.03.04-.04.07-.05.11-.02.04-.05.08-.06.12l-5.95,27.83L.35,63.62s-.04.04-.07.05c-.03.02-.07.04-.09.07-.03.03-.06.07-.08.1-.01.02-.04.04-.05.06,0,.01,0,.03-.01.04,0,.01-.02.02-.02.04,0,.03,0,.06-.01.08,0,.04-.02.08-.02.12s0,.08.02.13c0,.03,0,.06.01.08,0,.01.01.02.02.04,0,.01,0,.03.01.04.01.02.03.04.05.06.03.04.05.07.08.1.03.03.07.05.1.08.02.01.04.04.06.05l74.09,36.84s.02,0,.04,0c.02,0,.03.02.05.03.07.02.14.03.2.03h0c.07,0,.14-.01.2-.03.02,0,.03-.02.05-.03.01,0,.02,0,.03,0l15.19-7.55s.01-.02.02-.02c.06-.03.1-.09.15-.14.03-.03.08-.05.1-.1l7.52-13.15,41.7-20.73s.02-.02.04-.03c.03-.01.05-.03.07-.05.06-.05.11-.11.15-.18.01-.02.03-.02.04-.04l2.16-4.57,8.22-4.08s.04-.03.06-.05c.04-.02.08-.05.11-.08.03-.03.05-.06.07-.1.01-.02.04-.04.05-.06,0-.01,0-.03.01-.04,0-.02.02-.03.02-.04.01-.03,0-.06.01-.09M48.43,87.25l9.32-4.63,3.24,1.61-9.32,4.63-3.24-1.61ZM87.43,94.01l-3.77-1.88,1.06-.53,3.77,1.88-1.06.53ZM85.5,94.97l-3.78-1.88.49-.24,3.77,1.88-.49.25ZM74.74,100.33l-3.78-1.88,9.32-4.63,3.78,1.88-9.32,4.64ZM66.59,96.28l9.32-4.63,2.93,1.46-9.32,4.63-2.93-1.46ZM53.12,89.58l9.32-4.63,12.03,5.98-9.32,4.63-12.03-5.98ZM46.62,86.35l9.32-4.63.37.18-9.32,4.63-.37-.18ZM14.84,70.55l9.32-4.63,30.34,15.09-9.32,4.63-30.34-15.09ZM7.27,66.78l9.32-4.63,6.13,3.05-9.32,4.63-6.13-3.05ZM2.08,64.2l9.32-4.63,3.76,1.87-9.32,4.63-3.75-1.87ZM13.33,58.61l3.76,1.87-.49.24-3.76-1.87.49-.24ZM15.83,57.36l3.76,1.87-1.06.53-3.76-1.87,1.06-.53ZM116.35,44.23l3.73-1.85-.99,5.48-2.74-3.63ZM118.48,49.19l-34.09,16.95-6.05-3.01,36.84-18.32,3.3,4.38ZM78.9,88.72l-1.06.53-12.03-5.98,1.06-.53,12.03,5.98ZM60.37,79.51l.37.19-1.06.53-.37-.19,1.06-.53ZM61.91,78.84l-.1-.05.17-.09-.07.14ZM62.18,80.41l3.24,1.61-1.06.53-3.24-1.61,1.06-.53ZM63.06,79.42l.9-1.69,6.07-3.02-3.43,6.46-3.53-1.76ZM71.06,72.77l-.38.19,2.02-11.2,3.33,1.65-4.97,9.36ZM58.93,78.79l-1.06.53-30.34-15.08,1.06-.53,30.34,15.09ZM24.65,64.24l-.49.24-6.13-3.05.49-.24,6.13,3.05ZM26.09,64.95l30.34,15.09-.49.24-30.35-15.09.49-.24ZM77.84,90.68l2.93,1.46-.49.25-2.93-1.46.49-.24ZM79.28,89.96l1.06-.53,2.93,1.46-1.06.53-2.93-1.46ZM73.03,71.78l4.14-7.8,5.78,2.87-9.92,4.93ZM69.45,72.54l-1.61-2.13,3.01-5.68-1.41,7.8ZM68.84,73.87l-3.85,1.91,2.19-4.12,1.66,2.21ZM63.02,76.76l-2.65,1.32-31.05-15.44,2.87-13.41,13.14-6.53,21,27.83-3.31,6.23ZM32.53,47.62l3.65-17.05,8.36,11.08-12.01,5.97ZM36.82,29.31l39.43-19.6-1.93,17.14-28.61,14.23-8.88-11.77ZM27.15,62.99l-1.06.53-6.12-3.05,1.06-.53,6.12,3.05ZM57.38,81l.49-.24.37.19-.49.24-.37-.19ZM59.68,81.65l3.24,1.61-.49.24-3.24-1.61.49-.24ZM64.37,83.98l12.03,5.98-.49.24-12.03-5.98.49-.24ZM81.78,88.72l4.8-2.39-2.13,3.72-2.68-1.33ZM80.34,88l-12.59-6.26,4.26-8.01,12.39-6.16,5.68,2.82,4.29,2.34-6.63,11.6-7.39,3.67ZM35.11,29.43l-4.05,18.92-5.02,2.49,2.76-24.55,6.3,3.13ZM100.46,74.35l-3.77-1.87,38.32-19.06,1.77,2.87-36.32,18.06ZM121.79,40.09l.54-3.02,2.76,1.37-3.3,1.64ZM76.9,62.41l-3.24-1.61,38.97-19.37,1.77,2.34-37.49,18.64ZM77.78,7.51l.66-5.89,5.59,2.78-6.25,3.11ZM76.42,8.19l-40.57,20.17-6.12-3.05L77.14,1.74l-.73,6.45ZM30.72,49.96l-2.58,12.09-6.38-3.17,1.07-4.99,7.9-3.93ZM95.5,73.32l4.07,2.02-2.48,4.34-7.29,3.62,5.71-9.98ZM136.17,52.84l7.34-3.65-2.32,4.9-3.26,1.62-1.77-2.87ZM95.26,71.75l-4.6-2.5-4.82-2.4,33.91-16.86c.06-.03.1-.07.15-.11.01-.01.03-.02.04-.03.07-.08.12-.18.14-.28,0-.01.01-.02.02-.03l1.42-7.86,4.79-2.38,8.04,13.03-39.08,19.43ZM120.36,40.8l-4.8,2.38-1.77-2.34,7.21-3.58-.64,3.54ZM71.94,60.22s0,0,0,0c0,0,0,0,0,0,0,0,0,0-.01.01-.07.04-.13.09-.19.15-.02.02-.03.03-.04.06-.01.02-.03.03-.04.05l-4.66,8.78-20.5-27.16,28.71-14.27s.03-.03.05-.04c.02-.01.05-.02.07-.04.02-.01.02-.03.04-.04.03-.03.05-.06.08-.09.02-.04.05-.07.06-.11,0-.02.02-.03.03-.05,0-.02,0-.04,0-.07,0-.02.02-.04.02-.06l2.06-18.32,7.68-3.82,26.55,35.18-39.9,19.83ZM24.68,51.53l-1.51.75,3.02-14.11-1.51,13.36ZM20.57,58.29l-3.3-1.64,4.09-2.03-.79,3.67ZM85.61,90.62l3.04-5.32,7.29-3.63-6.27,10.97-4.06-2.02ZM100.92,75.55l36.54-18.17,1.05,1.7-39.36,19.57,1.77-3.1ZM138.61,56.81l1.69-.84-.96,2.03-.73-1.19ZM145.18,48.66l3.47,1.73-5.6,2.79,2.13-4.51Z"/>
  </g>
</svg>